# xmcd CD Database Entry
#
# Track frame offsets:
# 225
# 13794
# 43538
# 59111
# 81210
# 93433
# 114417
# 133627
# 152792
# 169467
# 193376
# 214673
# 237736
# 253940
# 266060
#
# Disc length: 3677 seconds
#
# Revision: 4
# Processed by: cddbd v1.4PL0 Copyright (c) Steve Scherf et al.
# Submitted via: tcd 2.0b
#
DISCID=e70e5a0f
DTITLE=Щурците - II
DYEAR=1900
DGENRE=
TTITLE0=Клетва
TTITLE1=За спомен от Щурците
TTITLE2=Говори се за нещо
TTITLE3=Бяла светлина
TTITLE4=Манекени
TTITLE5=XX век
TTITLE6=Дяволски сезон
TTITLE7=Кой е той
TTITLE8=Помниш ли
TTITLE9=На прага
TTITLE10=Далечен залив
TTITLE11=Вик
TTITLE12=Пред парадният вход
TTITLE13=Малкият светъл прозорец
TTITLE14=Празник на цветята
EXTD=Щурците 1968-1980
EXTT0=К. Маричков, В.Даверов (1966 г.)
EXTT1=[Две следи - Веселина - Звън - Песен без думи - Сватбен ден - Дай 
EXTT1=мималко нежност - Зората - Стар албум - Песен за Щурците - Вкусът
EXTT1=на времето] (1983 г.)
EXTT2=***/б. т. К. Маричков (1976 г.)
EXTT3=П. Гюзелев, М. Минков (1978 г.)
EXTT4=Ат. Косев, Д. Керелезов (1978 г.)
EXTT5=К. Маричков, В. Николаев (1980 г.)
EXTT6=П. Гюзелев, М. Минков (1976 г.)
EXTT7=П. Гюзелев, Ж. Кюлджиева (1978 г.)
EXTT8=Вл. Тотев, В. Николаев (1980 г.)
EXTT9=К. Маричков, К. Маричков (1976 г.)
EXTT10=К. Маричков, Ст. Банков (1976 г.)
EXTT11=К. Маричков, Вл. Попов (1987 г.)
EXTT12=К. Маричков, В. Петров (1987 г.)
EXTT13=Ат. Косев, М. Спасов (1968 г.)
EXTT14=Ат. Бояджиев, Б. Гудев (1968 г.)
PLAYORDER=
